<?xml version="1.0" encoding="utf-8"?>
<!-- Generator: Adobe Illustrator 16.0.0, SVG Export Plug-In . SVG Version: 6.00 Build 0)  -->
<!DOCTYPE svg PUBLIC "-//W3C//DTD SVG 1.1//EN" "http://www.w3.org/Graphics/SVG/1.1/DTD/svg11.dtd">
<svg version="1.1" id="Layer_1" xmlns="http://www.w3.org/2000/svg" xmlns:xlink="http://www.w3.org/1999/xlink" x="0px" y="0px"
	 width="512px" height="512px" viewBox="0 0 512 512" enable-background="new 0 0 512 512" xml:space="preserve">
<path fill="#FFFFFF" d="M186.18,88.01H158.61V88h-42.19L53.23,308.63l-3.44,12h42.19l13.85-48.34h90.939l10.41,36.34l3.44,12h42.189
	L186.18,88.01z M147.3,127.46h7.99l29.82,104.11h-67.62l3.439-12l26.08-91.11L147.3,127.46z"/>
<rect x="277.5" y="88" fill="#FFFFFF" width="40.727" height="184.839"/>
<rect x="326.843" y="279.888" fill="#FFFFFF" width="126.657" height="40.728"/>
<rect x="326.843" y="331.58" fill="#FFFFFF" width="126.657" height="40.728"/>
<rect x="326.843" y="383.273" fill="#FFFFFF" width="126.657" height="40.727"/>
<path fill="#FFFFFF" d="M318.228,310.387c0,5.648-4.58,10.229-10.229,10.229h-20.27c-5.648,0-10.229-4.58-10.229-10.229v-20.27
	c0-5.649,4.58-10.229,10.229-10.229h20.27c5.649,0,10.229,4.58,10.229,10.229V310.387z"/>
<path fill="#FFFFFF" d="M318.228,362.079c0,5.648-4.58,10.229-10.229,10.229h-20.27c-5.648,0-10.229-4.58-10.229-10.229v-20.27
	c0-5.649,4.58-10.229,10.229-10.229h20.27c5.649,0,10.229,4.58,10.229,10.229V362.079z"/>
<path fill="#FFFFFF" d="M318.228,413.771c0,5.648-4.58,10.229-10.229,10.229h-20.27c-5.648,0-10.229-4.58-10.229-10.229v-20.27
	c0-5.649,4.58-10.229,10.229-10.229h20.27c5.649,0,10.229,4.58,10.229,10.229V413.771z"/>
<line fill="#273F5B" x1="196.88" y1="88.5" x2="196.78" y2="88.5"/>
<line fill="#273F5B" x1="168.2" y1="88.5" x2="168.13" y2="88.5"/>
<line fill="#273F5B" x1="160.46" y1="88.5" x2="160.33" y2="88.5"/>
</svg>
